<svg viewBox="0 0 256 256" xmlns="http://www.w3.org/2000/svg">
  <path d="M210.1,117.7L136,43.6c-4.4-4.4-11.5-4.4-15.9,0L46,117.7c-4.4,4.4-8,13-8,19.2v67.5c0,6.2,5.1,11.2,11.2,11.2h44.2v-112c0-2.5,2-4.5,4.5-4.5h60c2.5,0,4.5,2,4.5,4.5v18c0,2.5-2,4.5-4.5,4.5h-37.5v9H158c2.5,0,4.5,2,4.5,4.5v18c0,2.5-2,4.5-4.5,4.5h-37.5v9H158c2.5,0,4.5,2,4.5,4.5v18c0,2.5-2,4.5-4.5,4.5h-42c-2.5,0-4.5-2-4.5-4.5s2-4.5,4.5-4.5h37.5v-9H116c-2.5,0-4.5-2-4.5-4.5v-18c0-2.5,2-4.5,4.5-4.5h37.5v-9H116c-2.5,0-4.5-2-4.5-4.5v-18c0-2.5,2-4.5,4.5-4.5h37.5v-9h-51v107.5h104.2c6.2,0,11.2-5.1,11.2-11.2v-67.5C218,130.7,214.4,122.1,210.1,117.7z"/>
</svg>
