<svg viewBox="0 0 256 256" xmlns="http://www.w3.org/2000/svg">
  <path d="M38,140.1V209c0,4.9,4,9,9,9h70.4C116.8,175,81.4,140.1,38,140.1z"/>
  <path d="M38,83.4v29.3c58.2,0.5,105.5,47.5,106.1,105.3h30.4C174,143.7,113,83.4,38,83.4z"/>
  <path d="M217.9,208.9v-61.3C197.5,96.9,155.8,56.7,103.8,38H47c-4.9,0-9,4-9,9v8.8c89.8,0.5,162.7,73,163.3,162.2h7.6C213.9,217.9,217.9,213.9,217.9,208.9z"/>
  <path d="M194.2,63.2c8.6,8.5,16.8,18.6,23.8,28.2V47.1c0-5-4-9-9-9h-45.4C174.1,45.5,184.8,53.8,194.2,63.2z"/>
</svg>
