<svg viewBox="0 0 256 256" xmlns="http://www.w3.org/2000/svg">
  <path d="M28,141.5V218c0,5.5,4.4,10,10,10h78.2C115.5,180.2,76.2,141.5,28,141.5z"/>
  <path d="M28,78.4v32.6c64.7,0.6,117.2,52.8,117.9,117h33.8C179.1,145.4,111.3,78.4,28,78.4z"/>
  <path d="M227.9,217.9v-68.1C205.2,93.5,158.9,48.8,101.1,28H38c-5.4,0-10,4.4-10,10v9.8c99.8,0.6,180.8,81.1,181.4,180.2h8.5C223.5,227.9,227.9,223.5,227.9,217.9z"/>
  <path d="M201.6,56c9.5,9.4,18.7,20.7,26.4,31.3V38.1c0-5.5-4.4-10-10-10h-50.5C179.2,36.3,191.1,45.5,201.6,56z"/>
</svg>
