<svg viewBox="0 0 760 760" xmlns="http://www.w3.org/2000/svg">
  <path d="M380,56.5l280,162v323.3L380,703.5L100,541.8V218.4L380,56.5z M121.7,418v108.2c0,1.8,1,3.4,2.5,4.3l253.2,146c1.5,0.9,3.5,0.9,5,0l252.9-146c1.5-0.9,2.6-2.5,2.6-4.3v-35.4v-22.3V418v-22.3V234.2c0-1.8-1.1-3.4-2.6-4.3l-252.9-146c-0.7-0.4-1.5-0.6-2.4-0.7c-0.9,0-1.8,0.2-2.6,0.7l-253.2,146c-1.5,0.9-2.5,2.5-2.5,4.3v88.7v20.8v52V418L121.7,418z M380,94.1l248,143.1v158.3h-99.4c-17.6,0-32.6,14.7-32.6,32.3v4.3c-59.7-0.4-77.5-15.9-99.7-35.3c-18.5-16.1-41.6-33.8-88.1-41.2c8.7-8.7,13.9-18.6,18.5-27c5-9.1,9.5-16.2,16.7-21.2c5.6-3.9,15.2-6.2,27.7-6.9v4.1c0,17.6,13.7,32,31.2,32h127.3c17.6,0,33.4-14.4,33.4-32v-31.3c0-17.6-15.7-31.8-33.3-31.8H402.4c-17.6,0-31.3,14.2-31.3,31.8v5.7c-16.4,0.8-30.4,4-39.9,10.6c-11.8,8.1-18.2,19-23.5,28.6c-5.3,9.5-9.6,17.8-15.9,23.5c-5.3,4.9-12.8,8.3-25,9.8c-1.6-16.2-15.6-27.8-32.2-27.9H132v-86.4L380,94.1z M402.4,263.5h127.3c5.9,0,10.3,3.8,10.3,9.7v31.3c0,5.9-4.4,10-10.4,10H402.3c-5.9,0-10.8-4-10.8-10v-31.3C391.6,267.3,396.5,263.5,402.4,263.5L402.4,263.5z M132,343.5h102.6c5.9,0,10.3,4.9,10.3,10.9v31.3c0,5.9-4.4,9.9-10.3,9.9H132V343.5z M267.4,373.7c71.7,1.1,91.5,19.2,114.6,39.4c22.1,19.3,49.4,39.7,114,40.5v5.4c0,17.6,15.1,31.5,32.6,31.5H628v32.7L380,666.3L132,523.2V417.5h102.7c17.6,0,32.8-14.3,32.8-31.9L267.4,373.7z M528.6,417.5H628v51h-99.4c-5.9,0-10.6-4.1-10.6-10v-30.7C518,421.8,522.7,417.5,528.6,417.5L528.6,417.5z" />
</svg>
