<svg viewBox="0 0 256 256" xmlns="http://www.w3.org/2000/svg">
  <path d="M127.9,132.9c-8.1,0-14.8,6.7-14.8,14.8s6.7,14.8,14.8,14.8s14.8-6.7,14.8-14.8S136.2,132.9,127.9,132.9"/>
  <path d="M37,56.7l15.4,15.4c19.5-19.5,46-31.4,75.6-31.4s56.1,12,75.6,31.4L219,56.7C195.7,33.4,163.5,19,128,19S60.3,33.4,37,56.7"/>
  <path d="M64.8,84.6L80.2,100c12.2-12.2,29.2-19.9,47.8-19.9s35.5,7.5,47.8,19.9l15.4-15.4c-16.2-16.2-38.5-26.2-63.3-26.2S80.9,68.3,64.8,84.6"/>
  <path d="M92.5,112.2l15.4,15.4c5.1-5.1,12.2-8.3,20.1-8.3s15,3.2,20.1,8.3l15.4-15.4c-9.1-9.1-21.7-14.8-35.5-14.8C114.1,97.6,101.6,103.1,92.5,112.2"/>
  <path d="M182.6,107.8c8.1,11.2,13,24.9,13,39.7c0,37.3-30.4,67.7-67.7,67.7s-67.7-30.4-67.7-67.7c0-14.8,4.9-28.6,13-39.7L57.6,92.2c-12,15.2-19.3,34.5-19.3,55.4c0,49.3,40.1,89.4,89.4,89.4s89.4-40.1,89.4-89.4c0-20.9-7.3-40.1-19.2-55.4L182.6,107.8z"/>
</svg>
